<?xml version="1.0" standalone="no"?>
<!DOCTYPE svg PUBLIC "-//W3C//DTD SVG 20010904//EN"
 "http://www.w3.org/TR/2001/REC-SVG-20010904/DTD/svg10.dtd">
<svg version="1.0" xmlns="http://www.w3.org/2000/svg"
 width="866.000000pt" height="890.000000pt" viewBox="0 0 866.000000 890.000000"
 preserveAspectRatio="xMidYMid meet">

<g transform="translate(0.000000,890.000000) scale(0.100000,-0.100000)"
fill="#000000" stroke="none">
<path d="M5875 8764 c-37 -20 -621 -599 -641 -636 -17 -32 -18 -101 -3 -131 6
-12 88 -100 182 -195 l172 -172 -1271 -1273 c-1217 -1218 -1273 -1275 -1305
-1342 -28 -60 -34 -84 -37 -163 -4 -78 -1 -102 18 -155 13 -34 36 -81 52 -105
29 -42 29 -44 11 -64 -69 -77 -918 -918 -927 -918 -7 0 -124 113 -261 250
l-248 251 21 27 c55 68 67 103 67 192 0 68 -5 93 -22 125 -12 22 -88 107 -170
189 -180 182 -213 201 -333 194 -60 -4 -87 -10 -121 -31 -24 -14 -205 -187
-401 -384 -372 -373 -388 -392 -404 -491 -4 -29 -1 -65 11 -110 18 -66 21 -70
169 -220 177 -180 210 -203 307 -210 86 -6 142 9 199 54 l44 35 253 -253 c139
-139 253 -256 253 -260 0 -5 -27 -36 -60 -69 -93 -96 -124 -210 -84 -310 l17
-41 -280 -281 c-155 -155 -288 -295 -296 -312 -41 -83 -41 -188 -1 -269 9 -17
131 -147 272 -288 221 -222 263 -260 315 -284 51 -23 70 -26 126 -22 40 3 84
14 111 28 30 14 139 115 322 298 l277 275 43 -12 c88 -27 191 -12 258 37 19
14 277 267 573 561 296 295 542 538 547 539 6 2 10 -127 10 -350 0 -333 2
-356 21 -398 11 -24 31 -59 45 -77 13 -17 24 -35 24 -38 0 -4 -31 -78 -69
-164 -38 -86 -116 -265 -175 -399 -218 -499 -514 -1176 -567 -1296 -21 -49
-39 -90 -39 -92 0 -3 167 -3 371 -2 l372 3 94 215 c52 118 138 316 193 440 54
124 148 340 209 480 61 140 119 273 130 294 l18 40 32 -85 c18 -46 50 -131 71
-189 21 -58 69 -184 105 -280 37 -96 84 -222 105 -280 21 -58 84 -224 139
-370 l99 -265 370 -3 370 -2 -27 72 c-16 40 -72 190 -125 333 -53 143 -101
270 -106 283 -6 13 -53 139 -105 280 -53 141 -100 267 -105 280 -6 13 -53 139
-106 280 -52 141 -106 284 -119 317 -40 103 -41 111 -7 149 16 19 39 60 51 91
21 55 21 69 21 763 l0 707 1182 1182 1183 1183 210 -210 c115 -115 223 -214
238 -219 40 -16 83 -14 120 5 37 19 585 560 623 616 33 46 35 114 5 160 -11
18 -570 583 -1243 1255 -866 866 -1234 1227 -1260 1238 -47 19 -75 19 -113 -1z
m569 -1993 l650 -650 -1118 -1117 -1119 -1116 -651 651 -651 651 1115 1115
c613 613 1117 1115 1120 1115 3 0 297 -292 654 -649z m-2802 -2788 c197 -197
358 -362 358 -368 0 -6 -291 -301 -648 -658 l-647 -647 -365 365 -365 365 650
650 c357 358 652 650 655 650 2 0 165 -161 362 -357z m-1722 -585 c0 -14 -209
-218 -222 -218 -7 0 -126 112 -263 250 l-250 250 115 115 115 115 252 -252
c139 -139 253 -256 253 -260z m2442 -74 c58 -19 168 -24 236 -11 l42 9 0 -571
0 -571 -357 2 -358 3 -3 465 -2 465 146 146 147 147 48 -33 c27 -18 72 -41
101 -51z m-2445 -1511 l-77 -78 -215 215 c-118 118 -215 219 -215 225 0 5 33
42 72 82 l73 73 220 -220 220 -220 -78 -77z"/>
<path d="M6595 6326 c-16 -8 -234 -219 -484 -469 l-455 -456 -4 -59 c-4 -55
-2 -61 27 -95 38 -43 88 -62 139 -52 32 6 96 66 490 458 249 249 460 464 468
479 36 68 4 155 -69 188 -50 23 -71 24 -112 6z"/>
<path d="M5445 5176 c-16 -8 -74 -58 -127 -113 -100 -102 -105 -112 -99 -182
8 -91 118 -150 199 -107 32 17 195 181 211 213 20 40 13 103 -15 141 -44 56
-109 75 -169 48z"/>
<path d="M4133 2870 c-81 -49 -83 -176 -5 -235 23 -17 45 -20 147 -23 143 -3
173 9 206 83 27 61 18 108 -31 158 l-38 37 -123 0 c-105 0 -129 -3 -156 -20z"/>
</g>
</svg>
