<?xml version="1.0" standalone="no"?>
<!DOCTYPE svg PUBLIC "-//W3C//DTD SVG 20010904//EN"
 "http://www.w3.org/TR/2001/REC-SVG-20010904/DTD/svg10.dtd">
<svg version="1.0" xmlns="http://www.w3.org/2000/svg"
 width="693.000000pt" height="712.000000pt" viewBox="0 0 693.000000 712.000000"
 preserveAspectRatio="xMidYMid meet">

<g transform="translate(0.000000,712.000000) scale(0.100000,-0.100000)"
fill="#000000" stroke="none">
<path d="M6265 7039 c-495 -78 -718 -124 -1042 -214 -594 -166 -1203 -440
-1673 -754 -126 -84 -331 -239 -455 -342 -221 -185 -539 -516 -713 -744 l-62
-80 -267 0 c-250 0 -273 -2 -341 -23 -87 -27 -174 -69 -257 -125 -64 -44 -603
-571 -625 -612 -26 -49 -10 -59 429 -240 328 -135 410 -173 405 -185 -61 -142
-191 -584 -239 -815 -3 -16 121 -146 579 -604 l583 -583 144 32 c167 38 371
96 514 146 55 20 119 43 143 51 24 9 47 12 51 7 4 -5 81 -187 170 -404 92
-222 172 -403 183 -412 11 -10 27 -18 36 -18 21 0 513 490 596 592 69 87 123
187 157 298 23 71 24 88 23 340 l-1 265 141 112 c897 712 1523 1733 1836 2997
89 363 175 870 168 1001 -7 128 -82 240 -196 293 -46 21 -74 27 -142 29 -47 1
-112 -3 -145 -8z m-1544 -1565 c80 -20 125 -40 200 -90 115 -76 201 -191 246
-328 22 -68 26 -99 26 -191 0 -93 -4 -122 -27 -190 -56 -163 -161 -289 -304
-363 -99 -52 -181 -72 -297 -72 -176 0 -312 57 -440 185 -127 126 -185 265
-185 440 0 175 58 314 185 440 166 167 371 225 596 169z"/>
<path d="M845 2396 c-231 -45 -441 -237 -610 -560 -35 -67 -45 -96 -40 -115
13 -54 22 -56 208 -56 138 0 184 -4 234 -19 l62 -18 -118 -117 c-326 -323
-441 -692 -351 -1131 26 -128 46 -172 83 -185 34 -11 46 -5 143 78 170 145
504 259 914 313 293 38 428 99 581 261 187 199 218 447 89 709 -43 88 -121
201 -145 211 -10 3 -47 -25 -104 -79 -146 -139 -297 -206 -486 -215 -138 -7
-141 -5 -137 108 7 200 109 420 253 541 67 56 65 73 -16 126 -191 127 -393
180 -560 148z"/>
</g>
</svg>
