<?xml version="1.0" standalone="no"?>
<!DOCTYPE svg PUBLIC "-//W3C//DTD SVG 20010904//EN"
 "http://www.w3.org/TR/2001/REC-SVG-20010904/DTD/svg10.dtd">
<svg version="1.0" xmlns="http://www.w3.org/2000/svg"
 width="1071.000000pt" height="1071.000000pt" viewBox="0 0 1071.000000 1071.000000"
 preserveAspectRatio="xMidYMid meet">

<g transform="translate(0.000000,1071.000000) scale(0.100000,-0.100000)"
fill="#000000" stroke="none">
<path d="M3005 7535 c-692 -1153 -1256 -2097 -1254 -2099 9 -6 4779 -938 4789
-934 11 3 2522 4179 2517 4185 -2 1 -1072 212 -2378 468 -1306 256 -2383 467
-2395 470 -18 4 -170 -244 -1279 -2090z m2673 1270 c558 -92 1033 -441 1287
-946 64 -126 70 -104 -63 -226 -562 -514 -1419 -972 -2269 -1212 -255 -72
-619 -141 -746 -141 l-48 0 -30 68 c-171 380 -204 795 -94 1197 14 51 32 110
41 131 19 46 7 65 131 -204 52 -114 98 -210 102 -215 4 -4 70 130 147 298
l140 306 302 138 c167 76 302 143 300 147 -2 5 -133 68 -292 141 -159 73 -290
134 -293 136 -7 8 77 72 172 132 301 190 641 282 993 269 73 -3 172 -12 220
-19z m1600 -5 c260 -45 437 -152 510 -310 38 -79 43 -216 12 -326 -227 -832
-2051 -1959 -3616 -2233 -272 -48 -623 -65 -824 -41 -486 59 -709 309 -598
670 39 125 158 330 253 436 l36 39 -37 -59 c-276 -445 -117 -764 416 -837 108
-14 384 -14 520 1 1002 110 2275 686 3025 1369 321 292 514 605 515 833 0 151
-102 291 -265 364 -142 63 -403 102 -610 91 -87 -5 -92 -4 -40 4 201 32 512
31 703 -1z m-3199 -285 c45 -99 87 -185 94 -192 7 -6 88 -45 181 -87 93 -42
175 -80 183 -85 10 -5 -42 -33 -159 -85 -95 -43 -182 -84 -194 -91 -12 -8 -54
-87 -104 -199 -46 -102 -87 -182 -91 -178 -4 4 -44 89 -89 189 l-83 181 -184
85 c-101 46 -185 87 -186 91 -1 3 82 45 184 92 l187 86 53 116 c108 241 120
265 123 261 2 -2 40 -85 85 -184z m3068 -1527 c-14 -315 -114 -617 -292 -883
-175 -262 -392 -453 -670 -590 -274 -135 -431 -174 -735 -182 -181 -5 -220 -3
-335 17 -240 40 -479 134 -680 267 -124 82 -221 164 -203 173 7 4 63 17 124
29 513 100 1114 315 1679 601 387 195 732 408 1000 614 61 47 112 85 114 86 2
0 1 -60 -2 -132z m490 -315 c96 -45 98 -199 4 -248 -42 -21 -107 -19 -146 5
-71 44 -85 152 -29 212 49 51 107 62 171 31z m-3183 -1267 c105 -44 127 -199
41 -275 -148 -129 -354 42 -256 212 37 66 138 95 215 63z"/>
<path d="M6399 9465 c-32 -17 -52 -63 -43 -98 7 -32 58 -77 85 -77 33 0 79 29
89 56 17 44 11 74 -19 105 -33 32 -70 37 -112 14z"/>
<path d="M2752 7727 c-43 -45 -21 -118 41 -140 30 -11 82 17 96 52 16 36 1 85
-30 101 -33 18 -84 12 -107 -13z"/>
<path d="M7415 5461 l-58 -129 -129 -58 c-70 -31 -125 -60 -122 -63 3 -3 60
-31 127 -62 l122 -56 56 -122 c31 -67 60 -122 64 -122 4 0 33 55 64 123 l57
122 121 56 c67 30 124 58 127 61 4 3 -51 31 -122 63 l-127 57 -59 130 c-32 71
-60 129 -61 129 -1 0 -28 -58 -60 -129z"/>
<path d="M5338 4171 c-161 -52 -281 -193 -311 -365 -32 -189 76 -397 254 -486
35 -18 115 -50 176 -71 162 -54 203 -90 203 -176 0 -97 -108 -170 -211 -143
-53 15 -106 69 -120 125 l-11 45 -180 0 -180 0 7 -57 c21 -170 101 -302 237
-393 169 -112 412 -113 583 -2 268 173 316 534 102 768 -67 73 -130 110 -272
160 -169 59 -203 77 -221 120 -32 76 24 141 113 131 56 -6 92 -31 100 -67 l6
-30 178 0 179 0 0 33 c0 17 -6 55 -14 82 -44 165 -166 285 -337 330 -76 21
-211 18 -281 -4z"/>
<path d="M620 3380 l0 -792 228 5 c250 5 301 14 430 73 204 93 347 253 422
474 34 100 40 307 11 420 -58 232 -213 422 -426 525 -143 70 -180 76 -437 82
l-228 5 0 -792z m507 384 c80 -38 166 -127 206 -211 30 -64 32 -75 32 -178 0
-99 -3 -116 -27 -168 -37 -78 -77 -127 -140 -170 -55 -38 -154 -77 -195 -77
l-23 0 0 421 0 422 45 -5 c25 -3 71 -18 102 -34z"/>
<path d="M1780 3220 l0 -630 400 0 400 0 0 145 0 145 -255 0 -255 0 0 100 0
100 210 0 211 0 -3 143 -3 142 -207 3 -208 2 0 95 0 95 255 0 255 0 0 145 0
145 -400 0 -400 0 0 -630z"/>
<path d="M2717 3843 c-4 -3 -7 -287 -7 -630 l0 -623 405 0 405 0 0 145 0 145
-260 0 -260 0 0 100 0 100 210 0 210 0 0 145 0 145 -210 0 -210 0 0 95 0 95
260 0 260 0 0 145 0 145 -398 0 c-219 0 -402 -3 -405 -7z"/>
<path d="M3670 3220 l0 -631 143 3 142 3 3 97 3 97 37 6 c134 22 236 71 321
155 162 162 199 416 90 620 -41 78 -137 171 -220 215 -96 51 -175 65 -361 65
l-158 0 0 -630z m353 326 c139 -50 201 -214 127 -343 -16 -28 -43 -61 -59 -72
-28 -20 -102 -51 -122 -51 -5 0 -9 108 -9 240 0 263 -4 249 63 226z"/>
<path d="M6155 3838 c-3 -7 -4 -290 -3 -628 l3 -615 143 -3 142 -3 0 100 0
100 48 6 c136 19 235 69 326 165 200 212 196 520 -9 725 -81 82 -165 130 -262
150 -89 19 -381 21 -388 3z m352 -293 c95 -28 163 -122 163 -225 0 -116 -79
-210 -197 -235 l-33 -7 0 241 c0 133 4 241 8 241 5 0 31 -7 59 -15z"/>
<path d="M7476 3841 c-6 -9 -426 -1240 -426 -1247 0 -3 68 -3 152 -2 l152 3
25 73 26 72 199 -2 199 -3 25 -72 24 -73 149 0 c82 0 149 3 149 8 0 5 -272
853 -386 1205 l-16 47 -133 0 c-74 0 -136 -4 -139 -9z m183 -656 c23 -72 41
-136 41 -143 0 -9 -27 -12 -95 -12 -52 0 -95 3 -95 7 0 22 96 291 101 285 4
-4 26 -66 48 -137z"/>
<path d="M8642 3835 c-220 -50 -410 -235 -469 -458 -24 -91 -21 -243 7 -332
67 -214 232 -375 445 -430 81 -22 233 -21 315 0 81 21 187 76 243 126 l42 38
-101 102 -102 102 -38 -31 c-88 -70 -232 -87 -335 -40 -111 51 -190 156 -204
272 -14 108 48 250 134 310 124 86 295 86 408 0 l35 -27 102 102 101 101 -34
28 c-63 51 -155 103 -221 123 -84 27 -241 34 -328 14z"/>
<path d="M9297 3843 c-4 -3 -7 -287 -7 -630 l0 -623 405 0 405 0 0 145 0 145
-260 0 -260 0 0 100 0 100 210 0 210 0 0 145 0 145 -210 0 -210 0 0 95 0 95
260 0 260 0 0 145 0 145 -398 0 c-219 0 -402 -3 -405 -7z"/>
<path d="M6187 2276 c-124 -45 -202 -155 -201 -286 1 -78 25 -139 80 -199 49
-55 97 -82 221 -125 131 -45 152 -56 196 -105 93 -103 64 -263 -59 -333 -119
-67 -250 -39 -329 69 -29 40 -32 42 -87 42 -34 1 -58 -3 -58 -9 0 -6 11 -33
25 -61 131 -258 514 -257 645 2 59 116 37 273 -52 375 -47 53 -90 77 -224 124
-136 48 -183 75 -212 122 -45 73 -38 158 20 223 54 63 159 75 248 30 28 -14
53 -32 57 -40 4 -11 22 -15 69 -15 35 0 64 4 64 8 0 22 -63 103 -102 130 -86
59 -212 79 -301 48z"/>
<path d="M2620 1686 l0 -586 175 0 c95 0 198 5 227 11 118 25 230 105 284 201
27 49 29 61 29 153 0 92 -2 104 -29 153 -28 51 -74 98 -144 152 l-33 25 35 68
c30 56 36 79 36 128 0 108 -62 193 -179 247 -52 24 -68 27 -228 30 l-173 4 0
-586z m367 443 c124 -60 131 -198 15 -267 -42 -24 -59 -27 -154 -31 l-108 -3
0 161 0 161 102 0 c83 0 110 -4 145 -21z m89 -451 c102 -53 148 -120 148 -213
0 -93 -46 -160 -148 -213 -47 -24 -62 -27 -193 -30 l-143 -4 0 247 0 247 143
-4 c131 -3 146 -6 193 -30z"/>
<path d="M6990 1685 l0 -585 55 0 55 0 0 585 0 585 -55 0 -55 0 0 -585z"/>
<path d="M7487 2263 c-4 -3 -7 -267 -7 -585 l0 -578 310 0 311 0 -3 58 -3 57
-247 3 -248 2 0 525 0 525 -53 0 c-30 0 -57 -3 -60 -7z"/>
<path d="M3657 2253 c-4 -3 -7 -264 -7 -580 l0 -573 60 0 60 0 0 169 0 168 98
8 c53 4 109 8 124 9 25 1 37 -14 136 -174 l109 -175 68 -3 c53 -2 66 0 62 10
-2 8 -57 98 -121 201 -64 103 -116 190 -116 195 1 4 24 25 52 47 184 144 198
399 31 562 -62 61 -170 116 -257 132 -65 12 -289 15 -299 4z m355 -142 c73
-28 160 -106 183 -164 21 -52 22 -141 2 -189 -50 -119 -197 -198 -368 -198
l-59 0 0 291 0 291 93 -4 c62 -3 111 -12 149 -27z"/>
<path d="M4940 1693 c-106 -313 -195 -574 -198 -581 -3 -10 10 -12 59 -10 l63
3 25 78 25 77 287 0 287 0 27 -80 27 -80 59 0 c32 0 59 3 59 7 0 7 -51 167
-271 846 l-100 307 -78 0 -78 0 -193 -567z m390 62 c60 -187 113 -348 116
-357 5 -17 -11 -18 -240 -18 -135 0 -246 2 -246 4 0 6 226 666 240 701 7 17
14 26 16 20 2 -5 53 -163 114 -350z"/>
</g>
</svg>
