<?xml version="1.0" standalone="no"?>
<!DOCTYPE svg PUBLIC "-//W3C//DTD SVG 20010904//EN"
 "http://www.w3.org/TR/2001/REC-SVG-20010904/DTD/svg10.dtd">
<svg version="1.0" xmlns="http://www.w3.org/2000/svg"
 width="1666.000000pt" height="652.000000pt" viewBox="0 0 1666.000000 652.000000"
 preserveAspectRatio="xMidYMid meet">

<g transform="translate(0.000000,652.000000) scale(0.100000,-0.100000)"
fill="#000000" stroke="none">
<path d="M1796 3848 c-625 -1040 -1133 -1894 -1129 -1898 5 -4 980 -197 2167
-429 1736 -340 2161 -420 2167 -409 4 7 516 859 1138 1893 621 1034 1128 1881
1127 1882 -1 1 -967 191 -2147 423 -1179 231 -2154 422 -2166 425 -19 4 -134
-183 -1157 -1887z m2430 1142 c138 -24 317 -81 435 -140 311 -155 586 -436
731 -745 l32 -69 -90 -84 c-632 -597 -1799 -1138 -2663 -1234 -135 -15 -121
-24 -182 131 -86 220 -115 395 -106 645 6 175 27 293 76 436 l29 85 20 -45
c95 -212 172 -375 178 -375 4 0 64 123 133 274 l126 274 277 126 c153 69 274
128 270 132 -4 3 -125 60 -269 125 -145 66 -261 124 -260 129 6 20 164 125
267 179 156 81 370 149 535 169 101 13 351 6 461 -13z m1394 5 c361 -54 546
-222 527 -476 -27 -343 -424 -796 -1074 -1223 -706 -464 -1586 -809 -2348
-922 -173 -26 -586 -26 -704 -1 -169 36 -280 87 -358 164 -136 133 -149 331
-37 556 38 76 133 217 184 277 29 33 29 31 -6 -24 -159 -256 -164 -475 -12
-611 147 -132 438 -188 803 -155 500 46 1082 222 1650 499 360 176 595 317
860 516 421 316 677 626 731 885 48 229 -83 400 -357 469 -78 20 -249 40 -369
43 l-65 1 55 7 c107 13 422 10 520 -5z m-592 -12 c-10 -2 -26 -2 -35 0 -10 3
-2 5 17 5 19 0 27 -2 18 -5z m-2227 -328 l46 -100 164 -74 c90 -41 167 -77
171 -80 4 -3 -70 -41 -165 -84 l-172 -78 -75 -165 c-41 -91 -78 -168 -81 -170
-4 -2 -42 72 -84 165 l-78 169 -169 78 c-93 42 -165 81 -161 85 4 4 78 40 163
79 85 39 160 76 166 83 7 7 45 86 85 176 l74 163 35 -73 c19 -41 56 -119 81
-174z m2736 -1312 c-20 -396 -176 -743 -461 -1029 -229 -228 -483 -366 -806
-435 -90 -20 -134 -23 -310 -23 -225 0 -322 14 -500 74 -179 59 -399 183 -530
298 l-45 40 60 12 c535 106 1031 279 1565 546 348 174 675 373 920 562 58 45
107 81 109 82 2 0 1 -57 -2 -127z m469 -296 c43 -40 55 -96 30 -149 -21 -45
-63 -68 -121 -68 -40 0 -52 5 -80 33 -86 86 -29 217 93 217 34 0 49 -6 78 -33z
m-2886 -1136 c95 -68 92 -202 -6 -258 -103 -60 -224 11 -224 131 0 73 38 125
108 147 36 11 91 2 122 -20z"/>
<path d="M4845 5575 c-53 -52 -15 -137 60 -137 30 0 45 6 62 27 48 55 12 135
-62 135 -25 0 -44 -8 -60 -25z"/>
<path d="M11496 4239 c-346 -119 -385 -576 -65 -762 24 -14 99 -45 167 -68
136 -46 177 -75 188 -134 26 -140 -160 -218 -262 -109 -17 18 -35 49 -38 68
l-7 36 -159 0 -160 0 0 -37 c0 -102 65 -237 150 -316 96 -89 194 -126 331
-127 188 0 354 103 433 270 27 57 31 78 34 170 4 118 -13 184 -69 271 -64 100
-137 148 -324 213 -145 50 -175 73 -175 132 0 51 36 84 92 84 52 0 105 -30
110 -62 3 -23 4 -23 161 -26 180 -3 175 -5 158 80 -43 205 -219 339 -444 338
-35 -1 -87 -9 -121 -21z"/>
<path d="M7232 3529 l3 -714 200 1 c175 0 210 3 278 22 241 68 418 236 494
467 22 69 26 98 27 205 0 146 -15 212 -74 331 -90 178 -241 304 -445 369 -60
19 -99 23 -278 28 l-207 4 2 -713z m456 344 c74 -35 147 -109 185 -190 29 -62
32 -76 32 -168 0 -90 -3 -106 -28 -155 -59 -115 -153 -184 -289 -214 l-28 -6
0 386 0 386 38 -7 c20 -4 61 -18 90 -32z"/>
<path d="M1561 4014 c-25 -32 -26 -46 -6 -84 18 -35 54 -47 94 -30 77 31 54
140 -30 140 -29 0 -42 -6 -58 -26z"/>
<path d="M8280 3380 l0 -570 363 2 362 3 3 128 3 127 -236 0 -235 0 0 90 0 90
188 2 187 3 0 130 0 130 -187 3 -188 2 0 85 0 85 235 0 236 0 -3 128 -3 127
-362 3 -363 2 0 -570z"/>
<path d="M9125 3938 c-3 -7 -4 -263 -3 -568 l3 -555 363 -3 362 -2 0 130 0
130 -232 2 -233 3 -3 88 -3 87 191 0 190 0 0 135 0 135 -190 0 -191 0 3 83 3
82 233 3 232 2 0 130 0 130 -360 0 c-279 0 -362 -3 -365 -12z"/>
<path d="M9990 3380 l0 -571 128 3 127 3 5 90 5 90 60 7 c141 18 282 123 352
264 38 78 38 78 38 204 0 126 0 126 -38 204 -50 100 -122 173 -219 220 -94 46
-150 56 -319 56 l-139 0 0 -570z m373 263 c146 -103 96 -352 -76 -380 l-37 -6
0 216 0 215 37 -8 c20 -5 55 -21 76 -37z"/>
<path d="M12235 3938 c-3 -7 -4 -263 -3 -568 l3 -555 130 0 130 0 5 90 5 90
60 7 c119 15 256 105 326 216 92 145 92 359 0 504 -67 106 -199 196 -320 218
-81 15 -330 13 -336 -2z m378 -295 c87 -60 112 -178 61 -274 -31 -55 -85 -97
-138 -106 l-36 -6 0 216 0 215 37 -8 c20 -5 55 -21 76 -37z"/>
<path d="M13425 3938 c-57 -162 -375 -1106 -375 -1115 0 -10 31 -13 134 -13
l135 0 22 70 23 70 180 -2 179 -3 22 -65 22 -65 138 -3 c128 -2 137 -1 133 15
-3 10 -86 267 -184 571 l-178 552 -124 0 c-89 0 -124 -3 -127 -12z m172 -595
l41 -128 -85 -3 c-47 -2 -88 -1 -90 2 -7 7 77 256 86 256 4 0 26 -57 48 -127z"/>
<path d="M14476 3934 c-99 -24 -184 -72 -262 -149 -88 -86 -136 -176 -160
-300 -31 -155 3 -303 99 -437 107 -149 265 -228 457 -228 150 0 254 38 380
139 l25 20 -92 92 -91 92 -48 -32 c-63 -42 -114 -54 -199 -49 -117 8 -203 68
-253 177 -69 149 1 335 151 402 100 45 251 25 322 -41 21 -19 21 -19 114 74
l93 93 -44 36 c-132 108 -325 151 -492 111z"/>
<path d="M15070 3380 l0 -570 365 0 365 0 0 130 0 130 -232 2 -233 3 -3 88 -3
87 191 0 190 0 0 135 0 135 -190 0 -191 0 3 83 3 82 233 3 232 2 0 130 0 130
-365 0 -365 0 0 -570z"/>
<path d="M10435 2516 c-127 -59 -189 -189 -151 -317 32 -112 99 -168 270 -225
162 -54 216 -111 216 -226 0 -67 -30 -121 -88 -162 -35 -25 -55 -31 -112 -34
-89 -5 -148 21 -193 85 -30 42 -33 43 -84 43 -29 0 -53 -2 -53 -5 0 -3 7 -22
15 -42 27 -65 81 -120 153 -155 59 -29 76 -33 147 -33 65 0 90 5 135 26 77 36
124 80 157 147 24 48 28 69 27 137 0 67 -4 88 -27 130 -52 97 -100 134 -236
180 -132 44 -178 71 -207 121 -78 133 48 286 199 240 26 -8 63 -26 82 -40 26
-20 45 -26 84 -26 28 0 51 2 51 5 0 20 -36 69 -76 104 -82 72 -213 92 -309 47z"/>
<path d="M7232 1993 l3 -528 130 -3 c72 -1 162 2 200 8 318 48 429 383 189
572 l-64 50 30 53 c58 102 50 194 -26 275 -74 79 -121 94 -307 98 l-157 4 2
-529z m336 399 c75 -39 103 -122 62 -189 -31 -51 -90 -75 -197 -81 l-93 -5 0
153 0 153 95 -6 c66 -4 108 -11 133 -25z m74 -406 c160 -76 184 -252 50 -353
-61 -46 -127 -63 -249 -63 l-103 0 0 226 0 226 123 -4 c107 -4 129 -8 179 -32z"/>
<path d="M9505 2511 c-8 -14 -355 -1031 -355 -1042 0 -5 24 -9 53 -9 l53 0 24
75 24 75 261 0 262 0 22 -75 22 -75 54 0 c30 0 55 3 55 8 0 4 -76 241 -168
527 l-168 520 -66 3 c-38 2 -69 -2 -73 -7z m269 -743 l15 -48 -220 0 c-120 0
-219 4 -219 9 0 8 88 266 182 535 l42 120 93 -285 c51 -156 99 -305 107 -331z"/>
<path d="M11180 1990 l0 -530 50 0 50 0 0 530 0 530 -50 0 -50 0 0 -530z"/>
<path d="M11630 1990 l0 -530 275 0 275 0 0 55 0 55 -225 0 -225 0 0 475 0
475 -50 0 -50 0 0 -530z"/>
<path d="M8170 1985 l0 -525 50 0 50 0 0 153 0 153 113 11 c85 9 114 9 119 0
3 -7 49 -79 100 -162 l93 -150 58 -3 c35 -2 57 1 57 8 0 5 -47 87 -105 180
-58 93 -105 173 -105 177 0 3 27 32 60 64 85 81 115 148 114 254 0 101 -33
174 -111 245 -98 90 -190 120 -370 120 l-123 0 0 -525z m317 393 c67 -25 139
-87 164 -143 29 -63 25 -140 -10 -201 -54 -93 -148 -142 -288 -152 l-83 -5 0
268 0 268 80 -7 c44 -4 106 -16 137 -28z"/>
<path d="M5780 1972 l-52 -118 -110 -49 c-60 -27 -111 -51 -113 -55 -3 -4 47
-31 109 -60 l114 -52 51 -112 c27 -61 53 -111 56 -111 3 0 29 50 56 111 l51
112 114 52 c62 29 112 56 109 60 -2 4 -53 28 -113 55 l-110 49 -52 118 c-29
65 -54 118 -55 118 -1 0 -26 -53 -55 -118z"/>
</g>
</svg>
